<svg width="125" height="125" viewBox="0 0 125 125" fill="none" xmlns="http://www.w3.org/2000/svg">
<path d="M52 67.08C51.5733 67.08 51.1867 67 50.84 66.84C50.52 66.6533 50.36 66.2667 50.36 65.68C50.36 64.7467 50.6 63.8133 51.08 62.88C51.56 61.92 52.0533 61.08 52.56 60.36C53.0133 59.7467 53.52 59.1733 54.08 58.64C54.6667 58.08 55.2933 57.6 55.96 57.2C56.3867 56.9333 56.96 56.6533 57.68 56.36C58.4267 56.04 59.0533 55.88 59.56 55.88C59.9867 55.88 60.36 56 60.68 56.24C61 56.4533 61.16 56.8533 61.16 57.44C61.16 58.3467 60.92 59.28 60.44 60.24C59.9867 61.1733 59.5067 62 59 62.72C58.76 63.04 58.52 63.3467 58.28 63.64C58.04 63.9067 57.7733 64.1867 57.48 64.48C58.4667 64.48 59.3733 64.2 60.2 63.64C61.0267 63.0533 61.7467 62.3467 62.36 61.52L62.44 61.44C62.52 61.44 62.56 61.52 62.56 61.68C62.56 61.8667 62.5067 62.04 62.4 62.2C61.8667 62.9467 61.2 63.6133 60.4 64.2C59.6 64.76 58.6933 65.04 57.68 65.04C57.5733 65.04 57.4667 65.04 57.36 65.04C57.2533 65.04 57.1467 65.0267 57.04 65C55.5467 66.3867 53.8667 67.08 52 67.08ZM53.04 66.4C53.4133 66.4 53.8133 66.2667 54.24 66C54.6933 65.7333 55.04 65.48 55.28 65.24C55.7333 64.7867 56.1467 64.3067 56.52 63.8C56.8933 63.2667 57.24 62.7333 57.56 62.2C57.9333 61.56 58.3067 60.8 58.68 59.92C59.0533 59.04 59.24 58.2133 59.24 57.44C59.24 56.8267 59.0267 56.52 58.6 56.52C58.2533 56.52 57.8267 56.6667 57.32 56.96C56.84 57.2533 56.48 57.52 56.24 57.76C55.3333 58.6933 54.5733 59.7067 53.96 60.8C53.6133 61.4133 53.24 62.1333 52.84 62.96C52.44 63.7867 52.24 64.5467 52.24 65.24C52.24 65.3467 52.24 65.4533 52.24 65.56C52.2667 65.64 52.2933 65.7333 52.32 65.84C52.4267 66.2133 52.6667 66.4 53.04 66.4ZM57.8259 81C56.8126 81 55.8393 80.76 54.9059 80.28C53.9459 79.8267 53.2393 79.12 52.7859 78.16C52.6259 77.8133 52.5193 77.44 52.4659 77.04C52.4126 76.6667 52.3859 76.2933 52.3859 75.92V75.48C52.3859 75.2667 52.4126 75.0667 52.4659 74.88C52.5193 74.72 52.6526 74.64 52.8659 74.64C52.9193 74.64 52.9459 74.6667 52.9459 74.72C52.9459 74.88 52.9326 75.04 52.9059 75.2C52.8793 75.36 52.8659 75.5333 52.8659 75.72C52.8659 76.9467 53.2659 77.88 54.0659 78.52C54.8393 79.16 55.8126 79.48 56.9859 79.48C57.4659 79.48 57.9593 79.4267 58.4659 79.32C58.9726 79.2133 59.4526 79.0667 59.9059 78.88C61.5859 78.16 63.0393 77.1333 64.2659 75.8C65.5193 74.4933 66.6126 73.0133 67.5459 71.36C68.4793 69.7067 69.3193 68.0267 70.0659 66.32C70.4926 65.3067 70.8659 64.32 71.1859 63.36C71.5326 62.4 71.8393 61.5333 72.1059 60.76C71.8393 61.1333 71.4926 61.5867 71.0659 62.12C70.6393 62.6533 70.2126 63.1733 69.7859 63.68C69.3593 64.16 68.9859 64.5467 68.6659 64.84C67.9993 65.48 67.2793 66.0267 66.5059 66.48C65.7593 66.9067 64.9859 67.12 64.1859 67.12C63.9193 67.12 63.6926 67.0667 63.5059 66.96C63.3193 66.8533 63.2259 66.6533 63.2259 66.36C63.2259 65.9867 63.3193 65.5467 63.5059 65.04C63.7193 64.5333 63.9459 64.0267 64.1859 63.52C64.4259 63.0133 64.6259 62.6 64.7859 62.28C65.1059 61.6667 65.4126 61.0533 65.7059 60.44C65.9993 59.8267 66.2526 59.3067 66.4659 58.88C66.6793 58.48 66.7859 58.2133 66.7859 58.08C66.7859 57.8667 66.6259 57.8667 66.3059 58.08C66.0126 58.2933 65.7326 58.5067 65.4659 58.72C64.8793 59.28 64.2659 59.9467 63.6259 60.72C62.9859 61.4667 62.4926 62.0667 62.1459 62.52C62.0659 62.6267 61.9993 62.68 61.9459 62.68C61.8926 62.68 61.8659 62.6133 61.8659 62.48C61.8659 62.2667 61.9326 62.0667 62.0659 61.88C62.4393 61.3467 62.8793 60.76 63.3859 60.12C63.8926 59.48 64.4126 58.8667 64.9459 58.28C65.4526 57.7467 65.9726 57.2267 66.5059 56.72C67.0393 56.2133 67.7193 55.96 68.5459 55.96C69.1059 55.96 69.3859 56.1733 69.3859 56.6C69.3859 56.9733 69.2259 57.4 68.9059 57.88C68.7193 58.1733 68.4259 58.6667 68.0259 59.36C67.6259 60.0533 67.2126 60.8133 66.7859 61.64C66.3859 62.44 66.0393 63.1867 65.7459 63.88C65.4526 64.5733 65.3059 65.08 65.3059 65.4C65.3059 65.7733 65.4926 65.96 65.8659 65.96C66.1593 65.96 66.5193 65.8133 66.9459 65.52C67.3726 65.2 67.8126 64.8267 68.2659 64.4C69.0393 63.6533 69.7459 62.8267 70.3859 61.92C71.0526 61.0133 71.6259 60.1467 72.1059 59.32C72.1859 59.1867 72.3193 58.9467 72.5059 58.6C72.7193 58.2533 72.9326 57.92 73.1459 57.6C73.3859 57.28 73.5726 57.0933 73.7059 57.04C73.8393 56.9867 74.1059 56.84 74.5059 56.6C74.9059 56.36 75.3059 56.2 75.7059 56.12C76.0793 56.04 76.3593 56 76.5459 56C76.8393 56 76.9859 56.08 76.9859 56.24C76.9859 56.4533 76.8659 56.56 76.6259 56.56C76.3326 56.56 76.0659 56.64 75.8259 56.8C75.5859 56.9333 75.3993 57.1067 75.2659 57.32C75.0259 57.6667 74.6793 58.2933 74.2259 59.2C73.7993 60.1067 73.3193 61.16 72.7859 62.36C72.2793 63.5333 71.7726 64.7333 71.2659 65.96C70.7593 67.16 70.2926 68.2667 69.8659 69.28C69.2259 70.8 68.4926 72.28 67.6659 73.72C66.8393 75.1867 65.8659 76.4933 64.7459 77.64C63.6526 78.8133 62.3459 79.7333 60.8259 80.4C59.9193 80.8 58.9193 81 57.8259 81ZM81.1359 67.12C80.8693 67.12 80.6426 67.0667 80.4559 66.96C80.2693 66.8533 80.1759 66.6533 80.1759 66.36C80.1759 65.9867 80.2693 65.56 80.4559 65.08C80.6426 64.6 80.8559 64.1333 81.0959 63.68C81.3359 63.2 81.5493 62.8133 81.7359 62.52C80.8026 63.5067 79.8293 64.44 78.8159 65.32C78.3093 65.7467 77.7493 66.1467 77.1359 66.52C76.5226 66.8933 75.8693 67.08 75.1759 67.08C74.9093 67.08 74.7226 67 74.6159 66.84C74.5093 66.6533 74.4559 66.44 74.4559 66.2C74.4559 66.0667 74.4693 65.9733 74.4959 65.92C74.6293 64.88 74.9626 63.8 75.4959 62.68C76.0293 61.56 76.6826 60.5067 77.4559 59.52C78.2293 58.5333 79.0159 57.7333 79.8159 57.12C80.7226 56.4267 81.7226 56.08 82.8159 56.08H87.4159C87.5493 56.08 87.6159 56.1333 87.6159 56.24C87.6159 56.4533 87.4959 56.56 87.2559 56.56C86.9893 56.56 86.7226 56.7333 86.4559 57.08C86.1893 57.4 85.9893 57.6667 85.8559 57.88C85.6693 58.1733 85.3759 58.6667 84.9759 59.36C84.5759 60.0533 84.1626 60.8133 83.7359 61.64C83.3359 62.44 82.9893 63.1867 82.6959 63.88C82.4026 64.5733 82.2559 65.08 82.2559 65.4C82.2559 65.7733 82.4426 65.96 82.8159 65.96C83.2159 65.96 83.6693 65.7733 84.1759 65.4C84.6826 65.0267 85.1893 64.5733 85.6959 64.04C86.2293 63.48 86.7093 62.9333 87.1359 62.4C87.5893 61.84 87.9493 61.4 88.2159 61.08C88.3759 61.24 88.3626 61.4667 88.1759 61.76C88.0159 62.0267 87.8693 62.24 87.7359 62.4C87.2026 63.0933 86.5893 63.8133 85.8959 64.56C85.2026 65.28 84.4426 65.8933 83.6159 66.4C82.8159 66.88 81.9893 67.12 81.1359 67.12ZM76.8159 65.72C77.1359 65.72 77.5759 65.4933 78.1359 65.04C78.7226 64.56 79.3493 63.9733 80.0159 63.28C80.6826 62.56 81.3093 61.8133 81.8959 61.04C82.4826 60.24 82.9626 59.52 83.3359 58.88C83.7359 58.2133 83.9359 57.7067 83.9359 57.36C83.9359 57.0667 83.8426 56.8667 83.6559 56.76C83.4959 56.6533 83.2826 56.6 83.0159 56.6C82.5893 56.6 82.1226 56.76 81.6159 57.08C81.1359 57.3733 80.7493 57.6667 80.4559 57.96C80.1359 58.2533 79.7493 58.72 79.2959 59.36C78.8693 59.9733 78.4426 60.6533 78.0159 61.4C77.5893 62.1467 77.2293 62.8667 76.9359 63.56C76.6426 64.2533 76.4959 64.8133 76.4959 65.24C76.4959 65.56 76.6026 65.72 76.8159 65.72ZM90.0938 67.08C89.2938 67.08 88.7471 66.8933 88.4538 66.52C88.1604 66.12 88.0138 65.64 88.0138 65.08C88.0138 64.3333 88.1738 63.5333 88.4938 62.68C88.8404 61.8267 89.1204 61.16 89.3338 60.68C88.9871 61.0533 88.6538 61.4133 88.3338 61.76C88.0138 62.1067 87.7871 62.36 87.6538 62.52C87.5738 62.6267 87.5071 62.68 87.4538 62.68C87.4004 62.68 87.3738 62.6133 87.3738 62.48C87.3738 62.2667 87.4404 62.0667 87.5738 61.88C87.9471 61.4 88.3738 60.8933 88.8538 60.36C89.3338 59.8267 89.8004 59.2667 90.2538 58.68C90.7871 57.6933 91.3738 56.5467 92.0138 55.24C92.6804 53.9067 93.3604 52.5467 94.0538 51.16C94.7738 49.7467 95.4671 48.4533 96.1338 47.28C96.8271 46.08 97.4404 45.12 97.9738 44.4C98.4271 44.2133 98.8538 43.9733 99.2538 43.68C99.6804 43.3867 100.094 43.12 100.494 42.88C100.92 42.6133 101.36 42.48 101.814 42.48C102.107 42.48 102.32 42.56 102.454 42.72C102.614 42.88 102.72 43.0667 102.774 43.28C102.8 43.36 102.814 43.5067 102.814 43.72C102.814 44.3333 102.6 45.08 102.174 45.96C101.774 46.84 101.294 47.7067 100.734 48.56C100.2 49.3867 99.7338 50.0667 99.3338 50.6C98.2671 52.0933 97.1738 53.4533 96.0538 54.68C94.9338 55.88 93.9204 56.8933 93.0138 57.72C92.1338 58.52 91.4938 59.1067 91.0938 59.48C90.9071 59.8267 90.6804 60.2933 90.4138 60.88C90.1738 61.44 89.9604 62.04 89.7738 62.68C89.5871 63.2933 89.4938 63.8667 89.4938 64.4C89.4938 64.8533 89.6004 65.24 89.8138 65.56C90.0271 65.8533 90.3871 66 90.8938 66C90.9738 66 91.0538 66 91.1338 66C91.2138 66 91.3071 65.9867 91.4138 65.96C91.8671 65.88 92.3604 65.6267 92.8938 65.2C93.4271 64.7733 93.9604 64.28 94.4938 63.72C95.0271 63.16 95.5071 62.6267 95.9338 62.12C96.1204 61.9067 96.2938 61.7067 96.4538 61.52C96.6138 61.3067 96.7204 61.16 96.7738 61.08C96.9604 61.2667 96.9471 61.5067 96.7338 61.8C96.5471 62.0667 96.3871 62.2933 96.2538 62.48C96.0671 62.72 95.8004 63.0533 95.4538 63.48C95.1071 63.88 94.7071 64.32 94.2538 64.8C93.7471 65.3067 93.1204 65.8133 92.3738 66.32C91.6271 66.8267 90.8671 67.08 90.0938 67.08ZM91.7738 57.88C92.6004 57.1867 93.6404 56.2 94.8938 54.92C96.1738 53.6133 97.4271 52.04 98.6538 50.2C98.7871 49.9867 99.0004 49.6267 99.2938 49.12C99.6138 48.6133 99.9338 48.04 100.254 47.4C100.6 46.7333 100.894 46.0933 101.134 45.48C101.374 44.84 101.494 44.2933 101.494 43.84C101.494 43.4133 101.374 43.2 101.134 43.2C100.84 43.2 100.454 43.4533 99.9738 43.96C99.4138 44.5467 98.7738 45.4133 98.0538 46.56C97.3604 47.68 96.6271 48.9333 95.8538 50.32C95.0804 51.7067 94.3338 53.0667 93.6138 54.4C92.9204 55.7333 92.3071 56.8933 91.7738 57.88ZM97.6084 67.12C97.3418 67.12 97.1151 67.0667 96.9284 66.96C96.7418 66.8533 96.6484 66.6533 96.6484 66.36C96.6484 65.9867 96.7418 65.5467 96.9284 65.04C97.1418 64.5333 97.3684 64.0267 97.6084 63.52C97.8484 63.0133 98.0484 62.6 98.2084 62.28C98.3418 62.04 98.5151 61.6667 98.7284 61.16C98.9684 60.6267 99.2084 60.08 99.4484 59.52C99.7151 58.9333 99.9284 58.44 100.088 58.04C100.275 57.64 100.368 57.44 100.368 57.44C100.128 57.7067 99.8084 58.08 99.4084 58.56C99.0351 59.04 98.6218 59.5467 98.1684 60.08C97.7418 60.5867 97.3418 61.0667 96.9684 61.52C96.6218 61.9733 96.3684 62.3067 96.2084 62.52C96.1284 62.6267 96.0618 62.68 96.0084 62.68C95.9551 62.68 95.9284 62.6133 95.9284 62.48C95.9284 62.2667 95.9951 62.0667 96.1284 61.88C96.4484 61.48 96.8351 61 97.2884 60.44C97.7418 59.8533 98.1951 59.2667 98.6484 58.68C99.1284 58.0933 99.5418 57.5733 99.8884 57.12C99.6751 57.12 99.3951 57.1333 99.0484 57.16C98.7284 57.1867 98.4351 57.2267 98.1684 57.28C97.9018 57.3067 97.7551 57.32 97.7284 57.32C97.5951 57.32 97.6084 57.2133 97.7684 57C97.9284 56.7867 98.1418 56.5733 98.4084 56.36C98.6751 56.1467 98.8751 56.04 99.0084 56.04C99.0351 56.04 99.2484 56.0533 99.6484 56.08C100.048 56.08 100.342 56.08 100.528 56.08C101.062 55.36 101.582 54.5333 102.088 53.6C102.622 52.6667 103.142 51.64 103.648 50.52C103.862 50.4933 104.222 50.3467 104.728 50.08C105.262 49.7867 105.675 49.4933 105.968 49.2C106.102 49.0667 106.208 49 106.288 49C106.448 49 106.448 49.1067 106.288 49.32C106.102 49.5333 105.782 49.9867 105.328 50.68C104.875 51.3467 104.368 52.16 103.808 53.12C103.248 54.0533 102.715 55.04 102.208 56.08H105.448C105.742 56.08 105.888 56.12 105.888 56.2C105.888 56.3067 105.688 56.4133 105.288 56.52C104.835 56.6533 104.355 56.7333 103.848 56.76C103.368 56.7867 102.915 56.84 102.488 56.92C102.088 57 101.795 57.1733 101.608 57.44C101.448 57.6267 101.222 58.0267 100.928 58.64C100.635 59.2533 100.315 59.96 99.9684 60.76C99.6484 61.5333 99.3684 62.32 99.1284 63.12C98.8884 63.8933 98.7418 64.5467 98.6884 65.08V65.24C98.6884 65.4533 98.7551 65.6267 98.8884 65.76C99.0218 65.8933 99.1551 65.96 99.2884 65.96C99.6351 65.96 100.075 65.7467 100.608 65.32C101.168 64.8933 101.742 64.3867 102.328 63.8C102.915 63.1867 103.422 62.6267 103.848 62.12C104.035 61.9067 104.195 61.7067 104.328 61.52C104.488 61.3333 104.582 61.2133 104.608 61.16C104.662 61.2667 104.688 61.3467 104.688 61.4C104.688 61.56 104.635 61.7333 104.528 61.92C104.448 62.1067 104.355 62.2667 104.248 62.4C103.742 63.0667 103.128 63.7733 102.408 64.52C101.688 65.24 100.915 65.8533 100.088 66.36C99.2884 66.8667 98.4618 67.12 97.6084 67.12ZM99.8181 81C98.8048 81 97.8315 80.76 96.8981 80.28C95.9381 79.8267 95.2315 79.12 94.7781 78.16C94.6181 77.8133 94.5115 77.44 94.4581 77.04C94.4048 76.6667 94.3781 76.2933 94.3781 75.92V75.48C94.3781 75.2667 94.4048 75.0667 94.4581 74.88C94.5115 74.72 94.6448 74.64 94.8581 74.64C94.9115 74.64 94.9381 74.6667 94.9381 74.72C94.9381 74.88 94.9248 75.04 94.8981 75.2C94.8715 75.36 94.8581 75.5333 94.8581 75.72C94.8581 76.9467 95.2581 77.88 96.0581 78.52C96.8315 79.16 97.8048 79.48 98.9781 79.48C99.4581 79.48 99.9515 79.4267 100.458 79.32C100.965 79.2133 101.445 79.0667 101.898 78.88C103.578 78.16 105.031 77.1333 106.258 75.8C107.511 74.4933 108.605 73.0133 109.538 71.36C110.471 69.7067 111.311 68.0267 112.058 66.32C112.485 65.3067 112.858 64.32 113.178 63.36C113.525 62.4 113.831 61.5333 114.098 60.76C113.831 61.1333 113.485 61.5867 113.058 62.12C112.631 62.6533 112.205 63.1733 111.778 63.68C111.351 64.16 110.978 64.5467 110.658 64.84C109.991 65.48 109.271 66.0267 108.498 66.48C107.751 66.9067 106.978 67.12 106.178 67.12C105.911 67.12 105.685 67.0667 105.498 66.96C105.311 66.8533 105.218 66.6533 105.218 66.36C105.218 65.9867 105.311 65.5467 105.498 65.04C105.711 64.5333 105.938 64.0267 106.178 63.52C106.418 63.0133 106.618 62.6 106.778 62.28C107.098 61.6667 107.405 61.0533 107.698 60.44C107.991 59.8267 108.245 59.3067 108.458 58.88C108.671 58.48 108.778 58.2133 108.778 58.08C108.778 57.8667 108.618 57.8667 108.298 58.08C108.005 58.2933 107.725 58.5067 107.458 58.72C106.871 59.28 106.258 59.9467 105.618 60.72C104.978 61.4667 104.485 62.0667 104.138 62.52C104.058 62.6267 103.991 62.68 103.938 62.68C103.885 62.68 103.858 62.6133 103.858 62.48C103.858 62.2667 103.925 62.0667 104.058 61.88C104.431 61.3467 104.871 60.76 105.378 60.12C105.885 59.48 106.405 58.8667 106.938 58.28C107.445 57.7467 107.965 57.2267 108.498 56.72C109.031 56.2133 109.711 55.96 110.538 55.96C111.098 55.96 111.378 56.1733 111.378 56.6C111.378 56.9733 111.218 57.4 110.898 57.88C110.711 58.1733 110.418 58.6667 110.018 59.36C109.618 60.0533 109.205 60.8133 108.778 61.64C108.378 62.44 108.031 63.1867 107.738 63.88C107.445 64.5733 107.298 65.08 107.298 65.4C107.298 65.7733 107.485 65.96 107.858 65.96C108.151 65.96 108.511 65.8133 108.938 65.52C109.365 65.2 109.805 64.8267 110.258 64.4C111.031 63.6533 111.738 62.8267 112.378 61.92C113.045 61.0133 113.618 60.1467 114.098 59.32C114.178 59.1867 114.311 58.9467 114.498 58.6C114.711 58.2533 114.925 57.92 115.138 57.6C115.378 57.28 115.565 57.0933 115.698 57.04C115.831 56.9867 116.098 56.84 116.498 56.6C116.898 56.36 117.298 56.2 117.698 56.12C118.071 56.04 118.351 56 118.538 56C118.831 56 118.978 56.08 118.978 56.24C118.978 56.4533 118.858 56.56 118.618 56.56C118.325 56.56 118.058 56.64 117.818 56.8C117.578 56.9333 117.391 57.1067 117.258 57.32C117.018 57.6667 116.671 58.2933 116.218 59.2C115.791 60.1067 115.311 61.16 114.778 62.36C114.271 63.5333 113.765 64.7333 113.258 65.96C112.751 67.16 112.285 68.2667 111.858 69.28C111.218 70.8 110.485 72.28 109.658 73.72C108.831 75.1867 107.858 76.4933 106.738 77.64C105.645 78.8133 104.338 79.7333 102.818 80.4C101.911 80.8 100.911 81 99.8181 81Z" fill="black"/>
<path d="M46.9139 83.8733C45.3141 83.8495 43.6899 83.3132 42.0413 82.2646C40.4558 81.2809 38.8473 79.6888 37.2158 77.4883C35.2099 74.6421 33.5221 71.9287 32.1523 69.3481C30.7826 66.7674 29.664 64.5105 28.7967 62.5774C27.9933 60.6452 27.3739 59.2599 26.9383 58.4213C26.9383 58.4213 27.1011 58.2317 27.4268 57.8525C27.7534 57.4093 28.1436 56.9991 28.5973 56.6218C29.1159 56.1814 29.5351 55.9637 29.8551 55.9684C32.8628 56.0132 35.551 56.0212 37.9196 55.9924C40.3533 55.9006 42.5028 55.5485 44.3681 54.9362C46.2983 54.2608 48.0118 53.1022 49.5083 51.4603C51.0049 49.8183 52.288 47.4692 53.3576 44.4127C53.689 43.6496 53.8924 42.8845 53.9678 42.1176C54.1082 41.2876 54.1841 40.4886 54.1955 39.7207C54.2279 37.5449 53.7125 35.6171 52.6494 33.9371C51.5862 32.257 50.0327 31.2738 47.9887 30.9874C47.7337 30.9196 47.4462 30.8833 47.1262 30.8786C46.8063 30.8738 46.4863 30.869 46.1663 30.8643C44.9505 30.8462 43.6042 30.9862 42.1277 31.2842C40.715 31.5833 39.6501 32.1755 38.9329 33.0609C37.3016 35.1489 35.7301 37.5258 34.2183 40.1916C32.7074 42.7934 31.2596 45.4601 29.8748 48.1919C28.491 50.8596 27.1735 53.3682 25.9224 55.7179C25.5929 56.3531 24.9678 57.4959 24.0472 59.1464C23.1275 60.7329 22.108 62.5739 20.9887 64.6695C19.8704 66.7011 18.816 68.7336 17.8256 70.7671C16.8353 72.8006 16.0402 74.613 15.4405 76.2042C14.9048 77.7964 14.7606 78.8824 15.008 79.4622C15.071 79.5271 15.1016 79.6236 15.0997 79.7516C15.0968 79.9435 14.9994 80.0381 14.8074 80.0352C14.2955 80.0276 13.7855 79.892 13.2773 79.6284C12.7692 79.3649 12.1632 79.2278 11.4592 79.2174C10.8193 79.2078 10.177 79.3583 9.53231 79.6687C8.88858 79.9152 8.04953 80.3828 7.01517 81.0715C5.98081 81.7601 4.82037 82.3189 3.53385 82.7479C3.40491 82.8099 3.21245 82.8391 2.95648 82.8353C2.50853 82.8286 2.15848 82.6954 1.90631 82.4356C1.6532 82.2398 1.65558 82.0798 1.91345 81.9557C3.3251 81.7206 4.54859 81.2268 5.5839 80.4741C6.62016 79.6574 7.4673 78.6459 8.12532 77.4396C9.50249 75.2198 10.8477 72.9996 12.1608 70.7789C13.539 68.4951 14.8531 66.2104 16.1032 63.9247C17.617 61.1309 19.1627 58.3376 20.7404 55.5448C22.3191 52.688 23.8973 49.8631 25.475 47.0703C26.9859 44.4685 28.3353 41.9603 29.5234 39.5457C30.7114 37.1311 31.6015 35.3841 32.1936 34.3048C32.6539 33.4796 33.4328 32.7551 34.5302 32.1313C35.6926 31.4445 36.8205 30.9173 37.9141 30.5495C37.5302 30.5438 37.1462 30.5381 36.7622 30.5324C36.3792 30.4626 35.9638 30.4245 35.5158 30.4178C33.532 30.3883 31.3544 30.4839 28.9828 30.7047C26.6762 30.8624 24.3997 31.1485 22.1533 31.5632C19.9709 31.9787 18.042 32.5581 16.3668 33.3013C14.6916 34.0444 13.5579 34.9557 12.9658 36.035C12.7012 36.6071 12.4687 37.1797 12.2681 37.7528C12.0676 38.3259 11.963 38.9004 11.9545 39.4763C11.9326 40.9482 12.4288 42.0117 13.4432 42.6668C13.5072 42.6678 13.5382 42.7322 13.5363 42.8602C13.5344 42.9882 13.4045 43.1143 13.1466 43.2385C12.9527 43.3636 12.7923 43.3932 12.6652 43.3273C12.0301 42.9978 11.3056 42.219 10.4918 40.9907C9.74289 39.6994 9.24665 38.6359 9.00306 37.8002C8.8225 37.0295 8.73699 36.3241 8.74651 35.6842C8.77126 34.0204 9.33424 32.7486 10.4354 31.8689C11.5376 30.9252 12.9235 30.2737 14.593 29.9145C16.2635 29.4913 17.9631 29.2606 19.6918 29.2223C21.4855 29.1209 23.0543 29.0803 24.3982 29.1003C26.446 29.1307 28.8777 29.1669 31.6934 29.2088C34.51 29.1867 37.1022 29.1933 39.4699 29.2285C40.0459 29.2371 40.6858 29.2466 41.3897 29.257C42.0946 29.2035 42.831 29.1825 43.5989 29.1939C45.3267 29.2196 47.1171 29.3423 48.97 29.5618C50.823 29.7814 52.5126 30.2226 54.0389 30.8854C55.5652 31.5482 56.7343 32.5577 57.5462 33.9139C58.6075 35.7219 59.1209 37.7777 59.0867 40.0815C59.0343 43.6011 58.0626 46.531 56.1716 48.8711C55.5193 49.6935 54.8035 50.4829 54.0241 51.2394C53.2448 51.9959 52.3379 52.7185 51.3036 53.4072C49.6226 54.5343 47.6241 55.4967 45.308 56.2943C42.9928 57.028 40.5845 57.5682 38.0831 57.915C35.6456 58.2628 33.4021 58.4855 31.3524 58.583C32.1576 60.3872 33.3698 62.8055 34.9889 65.8379C36.6719 68.8713 38.707 71.9099 41.0939 74.9537C42.35 76.5726 43.6452 77.712 44.9795 78.3719C46.3139 79.0318 47.621 79.3713 48.9008 79.3903C50.9486 79.4208 52.8774 78.8414 54.6873 77.6522C56.5612 76.4639 58.246 75.0809 59.7416 73.5029C61.3022 71.862 62.5395 70.4402 63.4534 69.2377C63.6502 68.9206 63.8125 68.763 63.9405 68.7649C64.1325 68.7677 64.2256 68.9611 64.2199 69.3451C64.2123 69.857 64.0127 70.3661 63.6212 70.8723C60.6175 74.8601 57.7537 78.0499 55.0299 80.4416C52.3069 82.7694 49.6016 83.9132 46.9139 83.8733Z" fill="black"/>
<path d="M109 98.8517C109.504 98.6696 110.009 98.4913 110.697 98.1968C111.381 97.9063 112.25 97.4997 112.877 97.1547C113.504 96.8098 113.885 96.527 114.332 96.2443C114.811 96.0116 115.227 95.6532 115.543 95.2022C115.755 94.7138 115.839 94.1728 115.788 93.6368C115.77 93.3723 115.729 93.1102 115.665 92.8542C115.607 92.597 115.607 92.3287 115.665 92.0715C115.737 91.8315 115.917 91.661 115.424 90.7699C114.931 89.8789 113.766 88.2631 113.727 88.0304C113.683 87.7981 114.768 88.9486 115.424 89.7274C116.08 90.5023 116.306 90.9133 116.516 91.0294C116.554 91.0558 116.599 91.0696 116.645 91.069C116.691 91.0684 116.736 91.0534 116.774 91.0259C116.812 90.9984 116.842 90.9596 116.86 90.9141C116.878 90.8687 116.884 90.8186 116.876 90.7699C116.854 90.5606 116.627 90.3201 116.742 90.0917C116.968 89.8247 117.272 89.6495 117.603 89.5957C117.702 89.5637 117.808 89.5722 117.901 89.6194C117.994 89.6666 118.068 89.7492 118.108 89.8513C118.212 90.049 118.313 90.3318 118.212 90.5062C118.108 90.6845 117.809 90.7505 117.607 90.9094C117.405 91.0644 117.301 91.3121 117.456 91.3083C117.614 91.3044 118.032 91.0488 118.454 90.8977C118.813 90.7902 119.177 90.7034 119.545 90.6378C119.787 90.5761 119.852 90.4984 120.27 90.3784C120.745 90.2363 121.233 90.1493 121.725 90.1189C121.981 90.1423 121.711 90.3512 121.361 90.5062C121.012 90.665 120.583 90.7738 120.269 90.8977C119.96 91.0255 119.762 91.1727 119.423 91.2888C119.047 91.3777 118.681 91.5089 118.331 91.6804C118.065 91.866 118.014 92.1492 117.849 92.463C117.683 92.7769 117.402 93.1175 117.387 93.3774C117.369 93.6364 117.614 93.8112 117.726 94.0279C117.838 94.2447 117.82 94.5007 117.986 94.6984C118.281 94.9441 118.6 95.1558 118.937 95.3299C119.372 95.6166 119.888 96.0349 120.252 96.2326C120.619 96.4303 120.832 96.3993 121.228 96.6009C121.711 96.9092 122.213 97.1811 122.73 97.4146C123.267 97.5964 123.761 97.5268 123.93 97.6663C124.099 97.8057 123.944 98.1541 123.66 98.2474C123.348 98.2996 123.029 98.2309 122.759 98.0535C122.557 97.9257 122.572 97.8247 122.19 97.6663C121.812 97.5074 121.041 97.2942 120.273 96.9885C119.503 96.682 118.739 96.2909 118.09 96.1122C117.575 95.9569 117.03 95.9569 116.516 96.1122C116.177 96.2552 115.852 96.4303 115.543 96.6354C115.237 96.7943 114.891 96.8953 114.455 97.1547C113.958 97.5143 113.43 97.8205 112.877 98.0691C112.264 98.2901 111.569 98.3056 111.18 98.4606C110.791 98.6156 110.712 98.9061 110.575 98.9795C110.438 99.0529 110.24 98.91 109.969 98.8517C109.648 98.807 109.322 98.807 109 98.8517V98.8517Z" stroke="#F24E1E" stroke-linecap="round" stroke-linejoin="round"/>
<path d="M109.003 91C108.974 89.9747 109.142 88.9537 109.495 87.9957C109.849 87.0378 110.382 86.1618 111.064 85.4184C111.745 84.6749 112.562 84.0786 113.467 83.6639C114.372 83.2491 115.347 83.0241 116.336 83.0018C117.326 82.9795 118.309 83.1604 119.231 83.534C120.152 83.9075 120.993 84.4665 121.706 85.1785C122.418 85.8906 122.987 86.7417 123.38 87.6828C123.774 88.6239 123.984 89.6364 123.998 90.662C124.001 90.7747 124.001 90.8873 123.998 91" stroke="#F24E1E" stroke-linecap="round" stroke-linejoin="round"/>
<path d="M90.4504 51.1942L90.5028 51.9257L89.4104 52.0039L89.5152 53.4667L88.4229 53.545L88.4753 54.2764L86.8367 54.3938L86.6795 52.1995L79.0329 52.7473L79.1901 54.9416L77.5515 55.059L77.4991 54.3275L76.4067 54.4058L76.302 52.9429L75.2096 53.0212L75.1572 52.2898L76.2496 52.2115L76.1448 50.7487L77.2371 50.6704L77.1847 49.939L78.8233 49.8216L78.9805 52.0159L86.6271 51.4681L86.4699 49.2739L88.1085 49.1565L88.1609 49.8879L89.2532 49.8096L89.358 51.2725L90.4504 51.1942Z" fill="#F24E1E"/>
<g clip-path="url(#clip0_19_30)">
<path d="M6.98801 11.3507C6.988 11.1207 6.84217 10.8957 6.56891 10.7043C6.29565 10.5129 5.90719 10.3636 5.45252 10.2752C4.99784 10.1867 4.4973 10.1632 4.01401 10.2075C3.53072 10.2517 3.08631 10.3619 2.73681 10.524C2.38731 10.6861 2.14838 10.8929 2.05013 11.1183C1.95188 11.3438 1.99872 11.5778 2.18474 11.7908C2.37075 12.0039 2.68762 12.1864 3.09539 12.3154C3.50316 12.4444 3.98357 12.5142 4.47606 12.5158C4.80509 12.5169 5.13133 12.4876 5.43599 12.4296C5.74065 12.3715 6.01771 12.2859 6.2512 12.1776C6.48469 12.0693 6.67001 11.9405 6.79646 11.7986C6.92292 11.6566 6.98802 11.5045 6.98801 11.3507V11.3507ZM56.886 13.4546C54.0552 13.7014 51.2968 14.1037 48.6684 14.6532C46.4786 15.1516 44.3889 15.7407 42.4244 16.4135C41.2234 15.6786 40.1722 14.8928 39.2845 14.0665C37.2172 11.9892 35.5364 9.83267 34.2606 7.62076C34.1554 7.4379 33.9208 7.27705 33.595 7.16442C33.2692 7.05179 32.8714 6.99401 32.4663 7.00049C32.0612 6.99401 31.6634 7.05179 31.3376 7.16442C31.0118 7.27705 30.7772 7.4379 30.6721 7.62076C29.4044 9.83387 27.7233 11.9907 25.6482 14.0665C24.7613 14.8949 23.7037 15.6809 22.4903 16.4135C20.5258 15.7407 18.4361 15.1516 16.2463 14.6532C13.6161 14.106 10.8582 13.7037 8.02867 13.4546C7.69402 13.4238 7.34749 13.4382 7.02971 13.4961C6.71193 13.554 6.43605 13.653 6.23442 13.7815C6.03479 13.9067 5.9139 14.0553 5.88537 14.2108C5.85684 14.3663 5.9218 14.5224 6.07294 14.6616C9.8608 18.3453 12.4781 22.2675 13.842 26.3042C13.9147 26.501 14.1353 26.6792 14.4643 26.8068C14.7932 26.9343 15.2088 27.0028 15.6363 26.9999H49.3681C49.7956 27.0028 50.2112 26.9343 50.5401 26.8068C50.8691 26.6792 51.0898 26.501 51.1624 26.3042C52.487 22.2706 55.0618 18.3486 58.8059 14.6616C58.957 14.5224 59.022 14.3663 58.9934 14.2108C58.9649 14.0553 58.844 13.9067 58.6444 13.7815C58.4456 13.6559 58.1757 13.5587 57.865 13.501C57.5543 13.4432 57.2152 13.4272 56.886 13.4546V13.4546ZM47.8789 25.3235H17.1076C15.8497 21.9572 13.8039 18.6657 11.0071 15.5082C12.2886 15.6845 13.5418 15.9029 14.7571 16.162C17.2199 16.7212 19.5376 17.4102 21.665 18.2156C22.0201 18.357 22.4791 18.4282 22.9447 18.4141C23.4103 18.4 23.8458 18.3017 24.159 18.1402C26.0491 17.1203 27.6585 15.994 28.9496 14.7874C30.3226 13.4564 31.521 12.0876 32.5381 10.6886C33.5478 12.0889 34.7463 13.4579 36.1266 14.7874C37.4221 15.9908 39.0247 17.1166 40.8993 18.1402C41.213 18.3042 41.6523 18.4041 42.1222 18.4182C42.5921 18.4323 43.0551 18.3595 43.4112 18.2156C45.531 17.4053 47.85 16.7159 50.3191 16.162C51.532 15.9002 52.7856 15.6817 54.0691 15.5082C51.2334 18.6627 49.1573 21.9547 47.8789 25.3235V25.3235Z" fill="#FFC700"/>
<path d="M60.5 13C61.8807 13 63 12.5523 63 12C63 11.4477 61.8807 11 60.5 11C59.1193 11 58 11.4477 58 12C58 12.5523 59.1193 13 60.5 13Z" fill="#FFC700"/>
<path d="M32.4907 5.33986C32.9994 5.34152 33.4978 5.27433 33.9226 5.14679C34.3474 5.01925 34.6794 4.83712 34.8767 4.62349C35.0739 4.40987 35.1274 4.17437 35.0304 3.94687C34.9334 3.71937 34.6903 3.51012 34.3318 3.34566C33.9734 3.1812 33.5158 3.06893 33.0171 3.0231C32.5183 2.97728 32.001 2.99995 31.5306 3.08824C31.0602 3.17654 30.658 3.32649 30.375 3.51906C30.0919 3.71164 29.9408 3.93816 29.9408 4.16991C29.9408 4.47875 30.2088 4.77506 30.6865 4.99423C31.1642 5.21339 31.8127 5.33764 32.4907 5.33986ZM32.5092 22.1315C32.102 22.1298 31.7029 22.1834 31.3628 22.2854C31.0227 22.3875 30.7569 22.5333 30.5994 22.7043C30.4419 22.8754 30.3997 23.0639 30.4783 23.2459C30.5568 23.428 30.7525 23.5952 31.0405 23.7264C31.3284 23.8575 31.6956 23.9467 32.0951 23.9825C32.4947 24.0182 32.9086 23.999 33.2841 23.9273C33.6596 23.8555 33.9798 23.7345 34.2037 23.5795C34.4277 23.4246 34.5453 23.2428 34.5417 23.0574C34.5417 22.8118 34.3275 22.5763 33.9464 22.4027C33.5652 22.229 33.0482 22.1315 32.5092 22.1315V22.1315ZM22.0694 22.1315C21.6622 22.1298 21.2631 22.1834 20.923 22.2854C20.5829 22.3875 20.3172 22.5333 20.1597 22.7043C20.0021 22.8754 19.96 23.0639 20.0385 23.2459C20.1171 23.428 20.3128 23.5952 20.6007 23.7264C20.8887 23.8575 21.2558 23.9467 21.6554 23.9825C22.0549 24.0182 22.4689 23.999 22.8444 23.9273C23.2199 23.8555 23.54 23.7345 23.764 23.5795C23.9879 23.4246 24.1056 23.2428 24.1019 23.0574C24.1019 22.8118 23.8878 22.5763 23.5066 22.4027C23.1254 22.229 22.6085 22.1315 22.0694 22.1315V22.1315ZM42.9674 22.1315C42.5602 22.1298 42.1611 22.1834 41.821 22.2854C41.4809 22.3875 41.2152 22.5333 41.0577 22.7043C40.9001 22.8754 40.858 23.0639 40.9365 23.2459C41.0151 23.428 41.2108 23.5952 41.4987 23.7264C41.7867 23.8575 42.1538 23.9467 42.5534 23.9825C42.953 24.0182 43.3669 23.999 43.7424 23.9273C44.1179 23.8555 44.438 23.7345 44.662 23.5795C44.8859 23.4246 45.0036 23.2428 44.9999 23.0574C44.9999 22.8118 44.7858 22.5763 44.4046 22.4027C44.0234 22.229 43.5065 22.1315 42.9674 22.1315V22.1315Z" fill="#FFC700"/>
</g>
<g clip-path="url(#clip1_19_30)">
<path d="M6.98801 11.3507C6.988 11.1207 6.84217 10.8957 6.56891 10.7043C6.29565 10.5129 5.90719 10.3636 5.45252 10.2752C4.99784 10.1867 4.4973 10.1632 4.01401 10.2075C3.53072 10.2517 3.08631 10.3619 2.73681 10.524C2.38731 10.6861 2.14838 10.8929 2.05013 11.1183C1.95188 11.3438 1.99872 11.5778 2.18474 11.7908C2.37075 12.0039 2.68762 12.1864 3.09539 12.3154C3.50316 12.4444 3.98357 12.5142 4.47606 12.5158C4.80509 12.5169 5.13133 12.4876 5.43599 12.4296C5.74065 12.3715 6.01771 12.2859 6.2512 12.1776C6.48469 12.0693 6.67001 11.9405 6.79646 11.7986C6.92292 11.6566 6.98802 11.5045 6.98801 11.3507V11.3507ZM56.886 13.4546C54.0552 13.7014 51.2968 14.1037 48.6684 14.6532C46.4786 15.1516 44.3889 15.7407 42.4244 16.4135C41.2234 15.6786 40.1722 14.8928 39.2845 14.0665C37.2172 11.9892 35.5364 9.83267 34.2606 7.62076C34.1554 7.4379 33.9208 7.27705 33.595 7.16442C33.2692 7.05179 32.8714 6.99401 32.4663 7.00049C32.0612 6.99401 31.6634 7.05179 31.3376 7.16442C31.0118 7.27705 30.7772 7.4379 30.6721 7.62076C29.4044 9.83387 27.7233 11.9907 25.6482 14.0665C24.7613 14.8949 23.7037 15.6809 22.4903 16.4135C20.5258 15.7407 18.4361 15.1516 16.2463 14.6532C13.6161 14.106 10.8582 13.7037 8.02867 13.4546C7.69402 13.4238 7.34749 13.4382 7.02971 13.4961C6.71193 13.554 6.43605 13.653 6.23442 13.7815C6.03479 13.9067 5.9139 14.0553 5.88537 14.2108C5.85684 14.3663 5.9218 14.5224 6.07294 14.6616C9.8608 18.3453 12.4781 22.2675 13.842 26.3042C13.9147 26.501 14.1353 26.6792 14.4643 26.8068C14.7932 26.9343 15.2088 27.0028 15.6363 26.9999H49.3681C49.7956 27.0028 50.2112 26.9343 50.5401 26.8068C50.8691 26.6792 51.0898 26.501 51.1624 26.3042C52.487 22.2706 55.0618 18.3486 58.8059 14.6616C58.957 14.5224 59.022 14.3663 58.9934 14.2108C58.9649 14.0553 58.844 13.9067 58.6444 13.7815C58.4456 13.6559 58.1757 13.5587 57.865 13.501C57.5543 13.4432 57.2152 13.4272 56.886 13.4546V13.4546ZM47.8789 25.3235H17.1076C15.8497 21.9572 13.8039 18.6657 11.0071 15.5082C12.2886 15.6845 13.5418 15.9029 14.7571 16.162C17.2199 16.7212 19.5376 17.4102 21.665 18.2156C22.0201 18.357 22.4791 18.4282 22.9447 18.4141C23.4103 18.4 23.8458 18.3017 24.159 18.1402C26.0491 17.1203 27.6585 15.994 28.9496 14.7874C30.3226 13.4564 31.521 12.0876 32.5381 10.6886C33.5478 12.0889 34.7463 13.4579 36.1266 14.7874C37.4221 15.9908 39.0247 17.1166 40.8993 18.1402C41.213 18.3042 41.6523 18.4041 42.1222 18.4182C42.5921 18.4323 43.0551 18.3595 43.4112 18.2156C45.531 17.4053 47.85 16.7159 50.3191 16.162C51.532 15.9002 52.7856 15.6817 54.0691 15.5082C51.2334 18.6627 49.1573 21.9547 47.8789 25.3235V25.3235Z" fill="#FFC700"/>
<path d="M60.5 13C61.8807 13 63 12.5523 63 12C63 11.4477 61.8807 11 60.5 11C59.1193 11 58 11.4477 58 12C58 12.5523 59.1193 13 60.5 13Z" fill="#FFC700"/>
<path d="M32.4907 5.33986C32.9994 5.34152 33.4978 5.27433 33.9226 5.14679C34.3474 5.01925 34.6794 4.83712 34.8767 4.62349C35.0739 4.40987 35.1274 4.17437 35.0304 3.94687C34.9334 3.71937 34.6903 3.51012 34.3318 3.34566C33.9734 3.1812 33.5158 3.06893 33.0171 3.0231C32.5183 2.97728 32.001 2.99995 31.5306 3.08824C31.0602 3.17654 30.658 3.32649 30.375 3.51906C30.0919 3.71164 29.9408 3.93816 29.9408 4.16991C29.9408 4.47875 30.2088 4.77506 30.6865 4.99423C31.1642 5.21339 31.8127 5.33764 32.4907 5.33986ZM32.5092 22.1315C32.102 22.1298 31.7029 22.1834 31.3628 22.2854C31.0227 22.3875 30.7569 22.5333 30.5994 22.7043C30.4419 22.8754 30.3997 23.0639 30.4783 23.2459C30.5568 23.428 30.7525 23.5952 31.0405 23.7264C31.3284 23.8575 31.6956 23.9467 32.0951 23.9825C32.4947 24.0182 32.9086 23.999 33.2841 23.9273C33.6596 23.8555 33.9798 23.7345 34.2037 23.5795C34.4277 23.4246 34.5453 23.2428 34.5417 23.0574C34.5417 22.8118 34.3275 22.5763 33.9464 22.4027C33.5652 22.229 33.0482 22.1315 32.5092 22.1315V22.1315ZM22.0694 22.1315C21.6622 22.1298 21.2631 22.1834 20.923 22.2854C20.5829 22.3875 20.3172 22.5333 20.1597 22.7043C20.0021 22.8754 19.96 23.0639 20.0385 23.2459C20.1171 23.428 20.3128 23.5952 20.6007 23.7264C20.8887 23.8575 21.2558 23.9467 21.6554 23.9825C22.0549 24.0182 22.4689 23.999 22.8444 23.9273C23.2199 23.8555 23.54 23.7345 23.764 23.5795C23.9879 23.4246 24.1056 23.2428 24.1019 23.0574C24.1019 22.8118 23.8878 22.5763 23.5066 22.4027C23.1254 22.229 22.6085 22.1315 22.0694 22.1315V22.1315ZM42.9674 22.1315C42.5602 22.1298 42.1611 22.1834 41.821 22.2854C41.4809 22.3875 41.2152 22.5333 41.0577 22.7043C40.9001 22.8754 40.858 23.0639 40.9365 23.2459C41.0151 23.428 41.2108 23.5952 41.4987 23.7264C41.7867 23.8575 42.1538 23.9467 42.5534 23.9825C42.953 24.0182 43.3669 23.999 43.7424 23.9273C44.1179 23.8555 44.438 23.7345 44.662 23.5795C44.8859 23.4246 45.0036 23.2428 44.9999 23.0574C44.9999 22.8118 44.7858 22.5763 44.4046 22.4027C44.0234 22.229 43.5065 22.1315 42.9674 22.1315V22.1315Z" fill="#FFC700"/>
</g>
<path d="M124.283 79.4885L0.999999 86" stroke="black" stroke-width="2"/>
<path d="M54.9411 99.0133C54.0942 99.0562 53.2728 98.9697 52.4768 98.7537C51.6977 98.5528 51.0538 98.1769 50.5453 97.626C50.0368 97.075 49.7578 96.3121 49.7084 95.3374C49.6558 94.2987 49.8041 93.2739 50.1534 92.2629C50.5027 91.252 50.9914 90.306 51.6196 89.4251C52.2471 88.5282 52.9604 87.7471 53.7598 87.0818C54.4665 86.4853 55.2904 85.9869 56.2313 85.5868C57.1882 85.1858 58.1461 84.9611 59.1049 84.9125C59.5044 84.8923 59.8815 84.9052 60.2363 84.9513C60.5903 84.9814 60.9555 85.0751 61.3319 85.2322C61.6588 85.3598 61.9238 85.5306 62.1269 85.7446C62.3291 85.9426 62.4372 86.1775 62.4509 86.4491C62.4525 86.4811 62.4546 86.521 62.457 86.569C62.4594 86.6169 62.4535 86.6573 62.4391 86.69C62.3881 86.949 62.2513 87.2523 62.0286 87.6C61.8211 87.9309 61.6623 88.2754 61.5523 88.6334C61.5396 88.6981 61.4545 88.7585 61.2972 88.8146C61.139 88.8546 61.0742 88.8419 61.103 88.7763C61.2203 88.5621 61.3032 88.3016 61.3517 87.9947C61.4162 87.6871 61.4408 87.3814 61.4254 87.0778C61.4141 86.8541 61.3796 86.6476 61.3219 86.4583C61.2795 86.2522 61.2066 86.0796 61.1035 85.9407C60.9291 85.6611 60.6713 85.4739 60.3301 85.3791C59.9888 85.2842 59.6264 85.2465 59.2429 85.266C58.8754 85.2846 58.5099 85.3432 58.1464 85.4417C57.7829 85.5402 57.4678 85.6443 57.201 85.7539C56.2912 86.1365 55.4311 86.7087 54.6206 87.4707C53.9027 88.1639 53.2701 88.957 52.7226 89.8498C52.191 90.7419 51.7805 91.6518 51.4911 92.5796C51.2017 93.5075 51.0781 94.3869 51.1202 95.2178C51.1631 96.0647 51.3808 96.7265 51.7735 97.2033C52.1661 97.68 52.6633 98.0073 53.2651 98.185C53.8668 98.3628 54.5113 98.4343 55.1984 98.3995C55.8056 98.3687 56.4016 98.2744 56.9864 98.1166C57.5871 97.958 58.1303 97.7703 58.616 97.5534C59.4467 97.1909 60.1859 96.761 60.8335 96.2636C61.4972 95.7653 62.106 95.1337 62.66 94.3687C62.7358 94.2848 62.7897 94.242 62.8217 94.2404C62.8696 94.2379 62.8952 94.2687 62.8985 94.3326C62.9049 94.4604 62.8487 94.6155 62.7298 94.7977C62.2237 95.5603 61.6397 96.2067 60.9777 96.7369C60.3157 97.2671 59.6012 97.7118 58.8344 98.071C58.3176 98.3055 57.7113 98.5124 57.0155 98.6919C56.3357 98.8705 55.6442 98.9777 54.9411 99.0133ZM62.8025 97.9661C62.5468 97.9791 62.3127 97.9429 62.1001 97.8575C61.9026 97.7554 61.795 97.5285 61.7772 97.177C61.7489 96.6177 61.8644 96.0511 62.1236 95.4773C62.3821 94.8874 62.6522 94.3691 62.934 93.9223C63.187 93.541 63.4732 93.182 63.7926 92.8454C64.1271 92.492 64.4881 92.1854 64.8754 91.9255C65.123 91.7527 65.4581 91.5675 65.8806 91.3699C66.3183 91.1554 66.689 91.0405 66.9926 91.0252C67.2482 91.0122 67.4756 91.0728 67.6746 91.2069C67.8729 91.325 67.9809 91.5598 67.9987 91.9114C68.0262 92.4547 67.9108 93.0212 67.6523 93.6111C67.409 94.1841 67.1464 94.6941 66.8647 95.1409C66.7306 95.3399 66.5961 95.531 66.4612 95.7141C66.3255 95.8811 66.1742 96.057 66.0073 96.2417C66.5985 96.2117 67.1333 96.0164 67.6117 95.6558C68.0893 95.2791 68.4992 94.8338 68.8417 94.3198L68.8872 94.2694C68.9351 94.267 68.9615 94.3137 68.9664 94.4096C68.972 94.5215 68.9454 94.6269 68.8863 94.7261C68.5894 95.1897 68.2101 95.6094 67.7486 95.9853C67.2862 96.3451 66.7514 96.5404 66.1442 96.5712C66.0802 96.5744 66.0163 96.5777 65.9524 96.5809C65.8885 96.5842 65.8242 96.5794 65.7594 96.5667C64.9067 97.4429 63.921 97.9094 62.8025 97.9661ZM63.405 97.527C63.6287 97.5157 63.8644 97.4237 64.1119 97.2509C64.3755 97.0774 64.5755 96.915 64.7121 96.7639C64.97 96.4785 65.2031 96.1783 65.4114 95.8634C65.6189 95.5324 65.8105 95.2023 65.986 94.873C66.1903 94.4782 66.3909 94.0114 66.5879 93.4728C66.7849 92.9341 66.8717 92.4331 66.8482 91.9697C66.8296 91.6021 66.6924 91.4249 66.4367 91.4378C66.229 91.4483 65.9778 91.5492 65.6831 91.7403C65.4044 91.9307 65.1967 92.1014 65.0602 92.2525C64.5452 92.8393 64.1206 93.4696 63.7863 94.1434C63.5972 94.5215 63.3953 94.9643 63.1807 95.4718C62.9661 95.9793 62.8694 96.4408 62.8904 96.8562C62.8936 96.9201 62.8969 96.9841 62.9001 97.048C62.9185 97.0951 62.9373 97.1502 62.9566 97.2133C63.0318 97.4338 63.1813 97.5384 63.405 97.527ZM72.0234 97.5229C71.8636 97.531 71.7262 97.5059 71.6111 97.4477C71.496 97.3894 71.434 97.2724 71.4251 97.0966C71.4137 96.8729 71.4567 96.6144 71.554 96.3211C71.6513 96.0278 71.7649 95.7417 71.895 95.4627C72.0242 95.1678 72.1403 94.9296 72.2433 94.7482C71.714 95.3678 71.159 95.9566 70.5785 96.5147C70.2879 96.7858 69.9645 97.0425 69.6083 97.2848C69.2521 97.5271 68.8662 97.6588 68.4508 97.6799C68.291 97.688 68.1767 97.6457 68.1079 97.5531C68.0383 97.4445 67.9999 97.3182 67.9926 97.1744C67.9886 97.0945 67.9937 97.0382 68.0081 97.0054C68.0564 96.3782 68.2233 95.7209 68.5089 95.0336C68.7945 94.3462 69.154 93.6952 69.5875 93.0805C70.0209 92.4657 70.468 91.9625 70.9288 91.5707C71.451 91.1277 72.0397 90.8896 72.6949 90.8564L75.4514 90.7167C75.5313 90.7126 75.5728 90.7426 75.5761 90.8065C75.5825 90.9343 75.5139 91.0019 75.3701 91.0092C75.2103 91.0173 75.0557 91.1292 74.9065 91.3451C74.7564 91.5449 74.6446 91.7108 74.5712 91.8427C74.4683 92.0241 74.3075 92.3286 74.0888 92.7563C73.8702 93.1839 73.6456 93.6518 73.415 94.1602C73.1996 94.6517 73.0146 95.1096 72.8598 95.534C72.7051 95.9584 72.6326 96.2664 72.6423 96.4582C72.6537 96.6819 72.7712 96.7881 72.9949 96.7768C73.2346 96.7646 73.5006 96.639 73.7928 96.3999C74.0851 96.1608 74.375 95.8738 74.6624 95.5388C74.965 95.187 75.236 94.8449 75.4755 94.5123C75.7301 94.163 75.9325 93.8884 76.0826 93.6885C76.1833 93.7796 76.1822 93.9158 76.0792 94.0972C75.9915 94.2619 75.9101 94.3942 75.835 94.4941C75.5365 94.9258 75.1908 95.3758 74.798 95.8443C74.4044 96.2968 73.9676 96.6874 73.4876 97.0161C73.0228 97.3281 72.5348 97.497 72.0234 97.5229ZM69.3922 96.8151C69.584 96.8054 69.8408 96.6562 70.1626 96.3676C70.4995 96.0621 70.8572 95.6916 71.2357 95.2558C71.6133 94.8042 71.9661 94.3377 72.2942 93.8565C72.6215 93.3593 72.8872 92.9133 73.0915 92.5184C73.311 92.1068 73.4154 91.7971 73.4049 91.5894C73.396 91.4136 73.334 91.2966 73.2189 91.2383C73.1198 91.1793 72.9903 91.1538 72.8305 91.1619C72.5749 91.1748 72.3001 91.2849 72.0062 91.492C71.7275 91.6824 71.5047 91.8699 71.3378 92.0546C71.155 92.2401 70.9374 92.5314 70.6852 92.9287C70.4482 93.3092 70.2131 93.7296 69.9801 94.19C69.7471 94.6504 69.5533 95.0928 69.3985 95.5172C69.2438 95.9415 69.1729 96.2815 69.1859 96.5372C69.1956 96.729 69.2644 96.8216 69.3922 96.8151ZM76.822 97.3999C76.2308 97.4298 75.8096 97.339 75.5586 97.1275C75.3076 96.9159 75.1732 96.6343 75.1554 96.2828C75.1319 95.8194 75.2578 95.3004 75.533 94.7257C75.8075 94.135 76.0708 93.6411 76.3231 93.2438C76.5761 92.8625 76.8623 92.5036 77.1817 92.167C77.5162 91.8136 77.8771 91.5069 78.2645 91.247C78.5121 91.0742 78.8471 90.8891 79.2697 90.6914C79.7074 90.477 80.078 90.3621 80.3816 90.3467C80.7492 90.3281 81.0093 90.403 81.162 90.5715C81.3139 90.724 81.396 90.9201 81.4081 91.1598C81.4178 91.3516 81.396 91.5529 81.3426 91.7639C81.2884 91.9589 81.2258 92.1463 81.1548 92.3261C81.1117 92.4244 81.0435 92.5 80.95 92.5528C80.8558 92.5896 80.807 92.576 80.8038 92.5121C80.7997 92.4322 80.8041 92.3599 80.8168 92.2952C80.8295 92.2304 80.8339 92.1581 80.8298 92.0782C80.8145 91.7746 80.7276 91.4826 80.5692 91.2023C80.426 90.9052 80.2185 90.7635 79.9469 90.7773C79.6592 90.7918 79.3529 90.9115 79.0279 91.1362C78.702 91.345 78.4788 91.5245 78.3583 91.6748C77.9647 92.1273 77.5843 92.6833 77.2172 93.3427C76.8661 94.0013 76.6172 94.6227 76.4706 95.2069C76.3757 95.5481 76.3344 95.8386 76.3465 96.0783C76.3603 96.3499 76.4419 96.538 76.5914 96.6426C76.7409 96.7472 76.9195 96.7942 77.1272 96.7836C77.287 96.7755 77.4536 96.7431 77.6269 96.6862C77.8163 96.6286 78.0132 96.5625 78.2177 96.4881C78.689 96.304 79.1558 96.032 79.6182 95.6722C80.0957 95.2955 80.5245 94.9053 80.9046 94.5016C81.2838 94.0818 81.57 93.7229 81.7632 93.4247C81.7968 93.4551 81.8152 93.5022 81.8184 93.5661C81.8225 93.646 81.7954 93.7435 81.7371 93.8586C81.678 93.9577 81.6342 94.04 81.6054 94.1056C81.2925 94.57 80.8766 95.0557 80.3576 95.5626C79.8378 96.0535 79.2664 96.475 78.6434 96.827C78.0364 97.1781 77.4292 97.3691 76.822 97.3999ZM85.0718 96.9338C84.8321 96.9459 84.6139 96.9089 84.4173 96.8228C84.2367 96.7358 84.1399 96.5645 84.1269 96.3088C84.1196 96.165 84.1435 96.0036 84.1985 95.8246C84.3237 95.4497 84.4928 94.9926 84.7057 94.4531C84.9347 93.9129 85.1645 93.3886 85.395 92.8802C85.6248 92.3559 85.8035 91.9303 85.9311 91.6035C86.0173 91.4069 86.0583 91.2686 86.0543 91.1887C86.047 91.0449 85.9655 91.017 85.8097 91.105C85.654 91.193 85.4839 91.3137 85.2994 91.4673C85.1149 91.6208 84.9768 91.7399 84.885 91.8247C84.4889 92.2293 84.0726 92.7069 83.6359 93.2577C83.2144 93.7918 82.8264 94.3561 82.4721 94.9508C82.1329 95.5287 81.8736 96.1026 81.6942 96.6724C81.6831 96.7691 81.5833 96.8542 81.3947 96.9279C81.2062 97.0015 81.0321 97.0424 80.8723 97.0505C80.6166 97.0634 80.5167 96.9884 80.5725 96.8253C80.8979 95.9758 81.2269 95.0379 81.5594 94.0118C81.9079 92.9848 82.3031 91.9315 82.745 90.8517C83.072 90.0341 83.4378 89.1906 83.8423 88.321C84.2628 87.4506 84.7333 86.6177 85.2537 85.8223C85.7733 85.011 86.3537 84.2927 86.9948 83.6675C87.5602 83.1262 88.1863 82.6779 88.8732 82.3227C89.5753 81.9507 90.3418 81.7436 91.1727 81.7015C91.5402 81.6829 91.8639 81.7466 92.1436 81.8926C92.4226 82.0227 92.5877 82.2786 92.6391 82.6605L92.6501 82.8763C92.6614 83.1 92.6488 83.3249 92.6122 83.551C92.5994 83.6158 92.5371 83.651 92.4253 83.6566C92.3773 83.6591 92.3609 83.6519 92.3761 83.6351C92.419 83.2164 92.2921 82.9264 91.9956 82.7652C91.715 82.6032 91.359 82.5332 90.9276 82.555C90.1446 82.5947 89.4328 82.7749 88.7922 83.0958C88.1516 83.4166 87.5638 83.8309 87.0289 84.3386C86.204 85.1334 85.5016 86.1302 84.9215 87.3291C84.3414 88.528 83.8505 89.7464 83.4486 90.9843C83.2548 91.5869 83.0611 92.1895 82.8673 92.792C82.6896 93.3938 82.5177 93.9552 82.3519 94.4763C83.0224 93.4811 83.6678 92.6233 84.2882 91.903C84.9245 91.1819 85.483 90.6649 85.9638 90.3522C86.352 90.1083 86.7058 89.9782 87.0254 89.962C87.329 89.9466 87.4873 90.0667 87.5003 90.3224C87.5116 90.5461 87.4143 90.8394 87.2084 91.2023C87.1055 91.3838 86.9447 91.6883 86.7261 92.1159C86.5234 92.5427 86.3068 93.0103 86.0762 93.5186C85.8608 94.0101 85.6757 94.4681 85.521 94.8924C85.3663 95.3168 85.2938 95.6249 85.3035 95.8166C85.3165 96.0723 85.4348 96.1945 85.6585 96.1831C85.7864 96.1767 85.9281 96.1294 86.0839 96.0414C86.2556 95.9526 86.3798 95.8742 86.4565 95.8063C86.8717 95.4648 87.2753 95.0519 87.6673 94.5674C88.0593 94.0829 88.3902 93.6577 88.66 93.2915C88.6752 93.2747 88.6844 93.2983 88.6876 93.3622C88.6909 93.4261 88.6798 93.5228 88.6543 93.6523C88.644 93.7649 88.6009 93.8633 88.525 93.9472C88.3614 94.1958 88.1894 94.4368 88.009 94.6702C87.8437 94.8869 87.6785 95.1035 87.5132 95.3202C87.2274 95.6871 86.8769 96.0413 86.4617 96.3827C86.0624 96.7234 85.5991 96.9071 85.0718 96.9338ZM93.0843 87.2038C92.8606 87.2152 92.6972 87.1513 92.594 87.0124C92.526 86.9357 92.4888 86.8335 92.4823 86.7057C92.4694 86.45 92.5787 86.2362 92.8103 86.0642C92.9812 85.9594 93.1386 85.9034 93.2824 85.8961C93.5221 85.884 93.6935 85.9474 93.7967 86.0863C93.8646 86.163 93.9019 86.2652 93.9083 86.3931C93.9213 86.6488 93.804 86.863 93.5564 87.0357C93.4174 87.1389 93.2601 87.1949 93.0843 87.2038ZM89.3813 96.6433C89.2215 96.6514 89.084 96.6263 88.9689 96.5681C88.8698 96.509 88.8158 96.3916 88.8069 96.2158C88.7956 95.9921 88.8381 95.7256 88.9346 95.4164C89.0471 95.1063 89.1675 94.7958 89.2959 94.4849C89.4403 94.1732 89.5476 93.9194 89.6178 93.7236C89.7183 93.4942 89.8396 93.1997 89.9816 92.8401C90.1387 92.4636 90.2811 92.112 90.4087 91.7851C90.5515 91.4414 90.6516 91.2041 90.7091 91.073C90.4975 91.324 90.2412 91.6414 89.9403 92.0251C89.6545 92.392 89.3842 92.7502 89.1296 93.0995C88.875 93.4489 88.6806 93.723 88.5465 93.9221C88.5018 93.9884 88.4635 94.0224 88.4315 94.024C88.3995 94.0257 88.3815 93.9865 88.3775 93.9066C88.371 93.7788 88.4049 93.6569 88.4791 93.541C88.7633 93.1421 89.077 92.6937 89.4202 92.1957C89.7794 91.6968 90.1007 91.24 90.3841 90.8251C90.6667 90.3943 90.8447 90.1129 90.9181 89.981C91.0922 89.9401 91.3455 89.8793 91.6778 89.7983C92.0261 89.7166 92.2614 89.6166 92.3835 89.4982C92.429 89.4479 92.4758 89.4215 92.5237 89.419C92.5557 89.4174 92.5732 89.4486 92.5765 89.5125C92.5949 89.5596 92.5818 89.6163 92.5371 89.6827C92.4468 89.7994 92.2928 90.0796 92.075 90.5232C91.8572 90.9667 91.6258 91.4591 91.3809 92.0002C91.1511 92.5245 90.9349 93 90.7322 93.4268C90.5304 93.8696 90.3597 94.2948 90.2201 94.7024C90.0806 95.11 90.0152 95.4016 90.0241 95.5774C90.0355 95.8011 90.153 95.9073 90.3767 95.896C90.5845 95.8855 90.8416 95.7443 91.1483 95.4724C91.4709 95.1997 91.7911 94.8791 92.1088 94.5106C92.4258 94.126 92.7044 93.7755 92.9447 93.4589C93.0197 93.359 93.1099 93.2423 93.2153 93.1088C93.3359 92.9585 93.4113 92.8665 93.4416 92.833C93.4752 92.8633 93.494 92.9184 93.4981 92.9983C93.4878 93.111 93.4535 93.2249 93.3952 93.34C93.3362 93.4391 93.2767 93.5302 93.2168 93.6133C92.9023 94.0458 92.5567 94.4959 92.1798 94.9635C91.8022 95.4152 91.3814 95.805 90.9174 96.1329C90.4526 96.4449 89.9405 96.615 89.3813 96.6433ZM93.336 96.7313C93.2721 96.7345 93.2684 96.6626 93.325 96.5156C93.3977 96.3677 93.4615 96.2043 93.5165 96.0253C93.5875 95.8454 93.6576 95.6496 93.727 95.4378C93.8674 95.0462 94.0213 94.6059 94.1888 94.1168C94.3562 93.6277 94.5165 93.155 94.6696 92.6986C94.8219 92.2263 94.9539 91.8271 95.0655 91.5011C95.1923 91.1582 95.2773 90.9376 95.3203 90.8393C95.1088 91.0904 94.8525 91.4077 94.5515 91.7915C94.2657 92.1584 93.9955 92.5165 93.7409 92.8659C93.4862 93.2152 93.2919 93.4894 93.1578 93.6884C93.1131 93.7548 93.0747 93.7887 93.0428 93.7904C93.0108 93.792 92.9928 93.7528 92.9888 93.6729C92.9823 93.5451 93.0162 93.4232 93.0904 93.3073C93.3746 92.9084 93.6883 92.46 94.0315 91.962C94.3907 91.4632 94.712 91.0063 94.9954 90.5915C95.2779 90.1606 95.4559 89.8792 95.5293 89.7473C95.7035 89.7065 95.9567 89.6456 96.2891 89.5647C96.6374 89.4829 96.8726 89.3829 96.9948 89.2646C97.0403 89.2142 97.087 89.1878 97.135 89.1854C97.1669 89.1838 97.1845 89.2149 97.1878 89.2788C97.2062 89.3259 97.193 89.3827 97.1483 89.449C97.0581 89.5657 96.9037 89.8379 96.685 90.2655C96.4816 90.6763 96.2566 91.1363 96.01 91.6455C95.7794 92.1538 95.5624 92.6133 95.359 93.0242C95.5378 92.7588 95.7329 92.5006 95.9445 92.2495C96.1561 91.9985 96.3601 91.7559 96.5565 91.5216C96.7385 91.3202 96.99 91.0671 97.311 90.7625C97.632 90.4578 97.9702 90.1764 98.3256 89.9181C98.681 89.6597 98.9937 89.5077 99.2637 89.462C99.3268 89.4428 99.3823 89.432 99.4303 89.4295C99.4942 89.4263 99.5421 89.4239 99.5741 89.4222C99.9256 89.4044 100.108 89.5234 100.121 89.779C100.131 89.9708 100.04 90.2317 99.8481 90.5618C99.7451 90.7433 99.5844 91.0478 99.3657 91.4754C99.1622 91.8862 98.9528 92.3374 98.7374 92.8289C98.5372 93.3037 98.3597 93.7532 98.205 94.1776C98.0654 94.5852 98.0005 94.8849 98.0102 95.0766C98.0216 95.3003 98.1391 95.4065 98.3628 95.3952C98.6345 95.3814 98.9232 95.2306 99.229 94.9428C99.5508 94.6541 99.8929 94.2923 100.255 93.8574C100.617 93.4066 100.977 92.9317 101.337 92.4329C101.37 92.4632 101.389 92.5184 101.393 92.5982C101.399 92.7101 101.365 92.824 101.29 92.9399C101.231 93.039 101.172 93.1301 101.112 93.2133C100.963 93.4291 100.76 93.7037 100.505 94.037C100.265 94.3536 100.016 94.6706 99.76 94.988C99.5029 95.2894 99.267 95.5336 99.0522 95.7207C98.898 95.8407 98.6964 95.971 98.4472 96.1118C98.198 96.2526 97.9455 96.3295 97.6899 96.3425C97.4022 96.357 97.1989 96.2952 97.0797 96.1571C96.9598 96.003 96.8941 95.8141 96.8828 95.5903C96.8698 95.3347 96.904 95.0606 96.9853 94.7681C97.0666 94.4756 97.1567 94.1987 97.2556 93.9374C97.3697 93.6592 97.4554 93.4546 97.5129 93.3235C97.7722 92.7497 98.0091 92.209 98.2237 91.7015C98.4383 91.194 98.5883 90.8339 98.6736 90.6213C98.7167 90.523 98.7366 90.4419 98.7334 90.378C98.7277 90.2662 98.6394 90.2626 98.4685 90.3674C98.2976 90.4722 98.0891 90.6269 97.8432 90.8316C97.6132 91.0355 97.3992 91.2386 97.2012 91.4409C97.0024 91.6272 96.8726 91.7539 96.8119 91.8211C96.2523 92.4743 95.7682 93.1957 95.3596 93.9854C94.9662 94.7583 94.638 95.5519 94.3748 96.3663C94.1679 96.3928 93.963 96.4592 93.7601 96.5656C93.5573 96.672 93.4159 96.7272 93.336 96.7313ZM97.2203 104.585C96.6131 104.616 96.0225 104.501 95.4487 104.242C94.8596 104 94.4147 103.598 94.1139 103.036C93.9915 102.834 93.9083 102.614 93.8642 102.376C93.8209 102.154 93.7936 101.931 93.7822 101.707L93.7701 101.467C93.7636 101.34 93.7735 101.219 93.7998 101.105C93.8261 100.992 93.9112 100.932 94.055 100.924C94.0869 100.923 94.1037 100.938 94.1053 100.97C94.1102 101.066 94.1071 101.162 94.0959 101.259C94.0848 101.355 94.0821 101.46 94.0878 101.571C94.125 102.307 94.393 102.854 94.8919 103.213C95.3747 103.573 95.9677 103.735 96.6708 103.699C96.9584 103.685 97.2524 103.638 97.5528 103.559C97.8531 103.479 98.1283 103.377 98.3783 103.252C99.3792 102.769 100.234 102.101 100.944 101.248C101.67 100.394 102.286 99.4418 102.794 98.3908C103.317 97.3389 103.768 96.2668 104.145 95.1743C104.537 94.065 104.901 93.0213 105.236 92.0431C104.928 92.6034 104.585 93.1094 104.207 93.5611C103.829 93.9968 103.403 94.4349 102.928 94.8755C102.638 95.1465 102.314 95.4032 101.958 95.6456C101.618 95.8871 101.24 96.0184 100.824 96.0394C100.665 96.0475 100.55 96.0053 100.482 95.9126C100.412 95.804 100.374 95.6778 100.366 95.534L100.358 95.3662C100.406 94.7389 100.573 94.0817 100.859 93.3943C101.16 92.7062 101.528 92.0547 101.961 91.44C102.395 90.8253 102.842 90.322 103.302 89.9302C103.825 89.4872 104.413 89.2491 105.069 89.2159L107.825 89.0762C107.905 89.0722 107.946 89.1021 107.95 89.166C107.956 89.2939 107.888 89.3614 107.744 89.3687C107.568 89.3776 107.404 89.458 107.251 89.61C107.099 89.7619 106.986 89.9038 106.912 90.0356C106.766 90.2994 106.578 90.7014 106.349 91.2417C106.12 91.782 105.871 92.4034 105.602 93.1059C105.332 93.7924 105.064 94.4949 104.796 95.2134C104.527 95.9159 104.28 96.5772 104.055 97.1974C103.718 98.1277 103.323 99.0368 102.872 99.9248C102.437 100.828 101.901 101.64 101.265 102.361C100.645 103.098 99.8903 103.689 98.9997 104.134C98.4686 104.401 97.8754 104.552 97.2203 104.585ZM101.766 95.1747C101.958 95.165 102.214 95.0158 102.536 94.7271C102.857 94.4225 103.207 94.0523 103.585 93.6166C103.963 93.1649 104.316 92.6985 104.644 92.2172C104.971 91.72 105.237 91.274 105.441 90.8792C105.661 90.4676 105.765 90.1579 105.755 89.9501C105.746 89.7744 105.684 89.6573 105.569 89.5991C105.469 89.54 105.34 89.5146 105.18 89.5227C104.925 89.5356 104.658 89.6453 104.38 89.8516C104.101 90.0419 103.878 90.2294 103.711 90.4141C103.529 90.5996 103.311 90.891 103.059 91.2883C102.822 91.6688 102.579 92.0896 102.33 92.5508C102.097 93.0112 101.903 93.4535 101.748 93.8779C101.594 94.3023 101.523 94.6423 101.536 94.898C101.545 95.0897 101.622 95.182 101.766 95.1747Z" fill="black"/>
<defs>
<clipPath id="clip0_19_30">
<rect width="60" height="27" fill="white" transform="translate(3)"/>
</clipPath>
<clipPath id="clip1_19_30">
<rect width="60" height="27" fill="white" transform="translate(3)"/>
</clipPath>
</defs>
</svg>
